<?xml version="1.0" standalone="no"?>
<!DOCTYPE svg PUBLIC "-//W3C//DTD SVG 20010904//EN"
 "http://www.w3.org/TR/2001/REC-SVG-20010904/DTD/svg10.dtd">
<svg version="1.0" xmlns="http://www.w3.org/2000/svg"
 width="362.000000pt" height="250.000000pt" viewBox="0 0 362.000000 250.000000"
 preserveAspectRatio="xMidYMid meet">

<g transform="translate(0.000000,250.000000) scale(0.100000,-0.100000)"
fill="#000000" stroke="none">
<path d="M1338 1953 c-21 -5 -21 -4 -9 -37 7 -17 7 -26 -1 -28 -19 -7 -5 -305
15 -325 4 -3 29 -8 56 -11 70 -6 72 2 36 203 -28 161 -51 208 -97 198z"/>
<path d="M2350 1661 c0 -27 -4 -61 -10 -75 -7 -21 -6 -26 5 -26 12 0 15 16 15
75 0 41 -2 75 -5 75 -3 0 -5 -22 -5 -49z"/>
<path d="M2602 1470 c0 -14 2 -19 5 -12 2 6 2 18 0 25 -3 6 -5 1 -5 -13z"/>
<path d="M2222 1451 c-24 -10 -47 -24 -52 -31 -9 -14 -52 -16 -104 -4 -22 5
-27 4 -21 -6 6 -9 4 -11 -6 -5 -16 10 -129 13 -129 3 0 -9 -42 2 -59 16 -12 9
-13 8 -6 -3 6 -11 4 -13 -11 -6 -10 4 -27 7 -37 7 -10 0 -21 6 -24 13 -4 11
-22 14 -68 14 -35 -1 -68 2 -73 5 -12 7 -44 -3 -38 -13 3 -4 7 -26 10 -50 2
-24 8 -47 13 -52 4 -4 94 -3 198 2 105 6 242 8 306 4 l116 -6 13 48 c7 26 14
56 17 66 2 9 3 17 1 16 -2 -1 -22 -9 -46 -18z m-468 -19 c3 -5 -1 -9 -9 -9 -8
0 -12 4 -9 9 3 4 7 8 9 8 2 0 6 -4 9 -8z"/>
<path d="M2652 1420 c0 -19 2 -27 5 -17 2 9 2 25 0 35 -3 9 -5 1 -5 -18z"/>
<path d="M856 1415 c-9 -24 5 -41 16 -20 7 11 7 20 0 27 -6 6 -12 3 -16 -7z"/>
<path d="M977 1397 c-20 -31 -22 -60 -4 -54 6 2 12 8 13 13 0 5 4 17 8 26 14
31 1 42 -17 15z"/>
<path d="M2591 1384 c0 -11 3 -14 6 -6 3 7 2 16 -1 19 -3 4 -6 -2 -5 -13z"/>
<path d="M840 1366 c0 -2 7 -7 16 -10 8 -3 12 -2 9 4 -6 10 -25 14 -25 6z"/>
<path d="M924 1344 c-4 -10 -9 -22 -11 -26 -2 -5 0 -8 6 -8 11 0 26 39 17 47
-3 3 -9 -3 -12 -13z"/>
<path d="M2577 1310 c-4 -14 -6 -36 -6 -50 1 -18 4 -14 10 14 10 44 6 75 -4
36z"/>
<path d="M1634 1273 c3 -16 10 -50 16 -77 18 -87 15 -86 244 -86 239 1 501 15
539 29 53 20 88 121 53 150 -12 10 -13 6 -9 -27 7 -54 -19 -77 -105 -92 -37
-6 -75 -13 -84 -15 -10 -2 -18 2 -18 8 0 8 -3 8 -8 2 -4 -5 -18 -11 -32 -12
-108 -6 -370 -15 -435 -15 -75 1 -81 3 -102 29 -26 32 -30 85 -8 106 13 13 13
16 -1 21 -9 3 -25 6 -36 6 -17 0 -19 -5 -14 -27z"/>
<path d="M881 1229 c-45 -28 -64 -47 -56 -59 9 -14 81 -50 101 -50 21 0 94 52
94 67 0 10 -83 63 -99 63 -3 0 -21 -9 -40 -21z"/>
<path d="M2557 1220 c-2 -8 -11 -35 -18 -59 -15 -51 -40 -78 -84 -90 -18 -6
-23 -10 -11 -10 40 -2 84 38 106 96 11 31 19 61 17 67 -3 7 -7 5 -10 -4z"/>
<path d="M1090 1120 c-8 -5 -10 -10 -4 -10 6 0 16 -37 23 -82 7 -46 17 -88 21
-94 12 -14 37 -161 51 -300 7 -70 16 -111 21 -106 6 6 3 54 -6 123 -8 63 -24
182 -36 264 -26 193 -26 202 3 208 12 2 5 5 -18 5 -22 1 -47 -3 -55 -8z"/>
<path d="M982 1103 c-9 -3 -5 -11 12 -26 22 -20 26 -34 35 -127 l10 -105 -5
123 c-4 86 -2 122 6 122 6 0 8 5 5 10 -6 10 -41 12 -63 3z"/>
<path d="M700 1092 c0 -4 4 -12 9 -17 5 -6 5 -41 -1 -84 -13 -107 -4 -111 11
-5 8 57 19 93 29 102 14 10 11 12 -16 12 -18 0 -32 -4 -32 -8z"/>
<path d="M811 1083 c0 -10 4 -40 9 -68 7 -44 1 -162 -16 -305 -17 -145 -19
-180 -13 -180 4 0 11 9 14 21 4 11 19 25 33 32 l27 11 -28 4 c-25 3 -27 6 -23
35 3 18 10 104 16 192 6 88 13 186 16 218 5 53 3 57 -16 57 -13 0 -20 -6 -19
-17z"/>
<path d="M1288 1055 c6 -11 21 -29 34 -40 22 -19 22 -19 -2 10 -40 48 -43 51
-32 30z"/>
<path d="M2398 1053 c7 -3 16 -2 19 1 4 3 -2 6 -13 5 -11 0 -14 -3 -6 -6z"/>
<path d="M2450 978 c0 -4 4 -8 9 -8 6 0 12 4 15 8 3 5 -1 9 -9 9 -8 0 -15 -4
-15 -9z"/>
<path d="M2383 913 c4 -20 11 -39 16 -43 13 -8 42 -90 36 -100 -3 -5 -1 -10 4
-12 5 -1 15 -50 21 -108 6 -58 14 -107 17 -110 10 -9 -4 129 -28 273 -22 133
-23 137 -47 137 -23 0 -24 -3 -19 -37z"/>
<path d="M1555 846 c-9 -52 -15 -101 -13 -108 3 -7 -1 -33 -9 -57 -15 -49 -17
-121 -5 -121 9 0 39 115 71 275 19 90 17 104 -16 105 -6 0 -18 -39 -28 -94z"/>
<path d="M2160 883 c0 -51 16 -209 26 -256 3 -15 10 -24 16 -21 6 4 8 68 7
165 l-2 159 -24 0 c-21 0 -23 -4 -23 -47z"/>
<path d="M1681 899 c19 -19 20 -28 14 -112 -3 -51 -10 -128 -16 -172 -11 -95
-10 -134 1 -85 7 27 40 349 40 384 0 3 -13 6 -30 6 l-30 0 21 -21z"/>
<path d="M691 871 c-1 -13 -7 -58 -15 -100 -8 -42 -22 -119 -31 -171 -9 -52
-19 -103 -22 -114 -3 -10 -1 -16 5 -13 16 10 79 384 69 409 -3 7 -6 2 -6 -11z"/>
<path d="M1043 715 c0 -27 2 -38 4 -22 2 15 2 37 0 50 -2 12 -4 0 -4 -28z"/>
<path d="M1053 540 c0 -41 2 -58 4 -37 2 20 2 54 0 75 -2 20 -4 3 -4 -38z"/>
<path d="M740 580 c-12 -8 -11 -10 8 -10 12 0 22 5 22 10 0 13 -11 13 -30 0z"/>
</g>
</svg>
